<?xml version="1.0" encoding="UTF-8" standalone="no"?>
<svg
   xmlns:dc="http://purl.org/dc/elements/1.1/"
   xmlns:cc="http://creativecommons.org/ns#"
   xmlns:rdf="http://www.w3.org/1999/02/22-rdf-syntax-ns#"
   xmlns:svg="http://www.w3.org/2000/svg"
   xmlns="http://www.w3.org/2000/svg"
   xmlns:sodipodi="http://sodipodi.sourceforge.net/DTD/sodipodi-0.dtd"
   xmlns:inkscape="http://www.inkscape.org/namespaces/inkscape"
   sodipodi:docname="neontribe_logo.svg"
   inkscape:version="0.48.4 r9939"
   id="svg3169"
   version="1.1"
   viewBox="0 0 484 478"
   height="478px"
   width="484px">
  <metadata
     id="metadata3196">
    <rdf:RDF>
      <cc:Work
         rdf:about="">
        <dc:format>image/svg+xml</dc:format>
        <dc:type
           rdf:resource="http://purl.org/dc/dcmitype/StillImage" />
        <dc:title>neontribe_logo</dc:title>
      </cc:Work>
    </rdf:RDF>
  </metadata>
  <sodipodi:namedview
     pagecolor="#ffffff"
     bordercolor="#666666"
     borderopacity="1"
     objecttolerance="10"
     gridtolerance="10"
     guidetolerance="10"
     inkscape:pageopacity="0"
     inkscape:pageshadow="2"
     inkscape:window-width="1916"
     inkscape:window-height="1058"
     id="namedview3194"
     showgrid="false"
     inkscape:zoom="1.76"
     inkscape:cx="140.57955"
     inkscape:cy="239"
     inkscape:window-x="0"
     inkscape:window-y="18"
     inkscape:window-maximized="0"
     inkscape:current-layer="neontribe_logo" />
  <!-- Generator: Sketch 3.7.2 (28276) - http://www.bohemiancoding.com/sketch -->
  <title
     id="title3171">neontribe_logo</title>
  <desc
     id="desc3173">Created with Sketch.</desc>
  <defs
     id="defs3175" />
  <g
     id="Page-1"
     stroke="none"
     stroke-width="1"
     fill="none"
     fill-rule="evenodd">
    <g
       id="neontribe_logo"
       fill="#1A1918">
      <path
         d="M272.177,43.979 C274.413,72.279 333.815,59.185 337.443,36.841 C340.339,18.992 327.817,11.965 306.85,15.425 C291.788,17.914 270.684,25.065 272.177,43.979 M309.91,0.129 L320.107,0.129 C341.827,4.257 355.828,16.132 351.718,39.901 C345.642,75.05 269.822,89.106 259.939,52.139 C250.773,17.84 285.043,4.97 309.91,0.129"
         id="Fill-1"
         style="fill:#ffffff;fill-opacity:1" />
      <path
         d="M155.925,46.019 C155.37,44.431 153.162,42.901 152.865,40.919 C151.504,31.772 195.991,9.187 205.892,4.209 C209.95,2.17 214.915,9.249 215.071,10.328 C216.441,19.766 194.328,26.68 187.538,30.723 C176.084,37.545 170.191,44.949 155.925,46.019"
         id="Fill-2"
         style="fill:#ffffff;fill-opacity:1" />
      <path
         d="M169.183,72.534 C168.511,71.164 167.001,70.634 165.102,70.494 C160.048,58.768 175.86,53.436 188.557,46.019 C200.993,38.759 207.879,34.029 215.072,30.722 C219.981,28.467 226.148,32.846 226.288,36.842 C226.549,44.23 205.693,53.697 199.775,57.237 C188.081,64.232 180.461,68.229 169.183,72.534"
         id="Fill-3"
         style="fill:#ffffff;fill-opacity:1" />
      <path
         d="M129.411,31.743 C136.937,50.91 140.388,74.846 141.649,98.027 C128.484,100.016 117.76,91.965 107.997,86.808 C97.927,81.493 88.748,75.152 78.423,70.494 C76.554,89.019 79.436,112.298 73.325,126.581 L66.186,126.581 C60.239,115.912 63.425,96.578 64.147,80.692 C64.667,69.222 62.091,55.813 70.267,51.117 C90.629,58.97 107.232,70.579 126.354,79.671 C123.082,63.66 119.875,51.757 119.212,34.803 C121.396,32.564 124.165,30.916 129.411,31.743"
         id="Fill-4"
         style="fill:#ffffff;fill-opacity:1" />
      <path
         d="M407.805,39.901 C414.38,59.162 419.639,79.735 425.141,100.066 C430.408,96.27 434.93,88.629 441.458,80.692 C447.697,73.104 455.307,58.517 465.932,64.375 C467.927,78.401 454.119,88.064 446.557,97.006 C439.038,105.899 433.016,121.255 419.023,122.5 C409.477,103.836 406.104,78.991 398.628,58.257 C391.456,62.358 382.834,69.483 372.114,77.632 C362.981,84.573 347.188,102.606 339.482,89.868 C343.532,76.778 357.484,71.839 367.016,64.375 C377.063,56.505 386.512,48.196 396.59,40.92 C396.841,39.814 398.617,40.23 398.628,38.88 C402.343,38.567 405.264,39.042 407.805,39.901"
         id="Fill-5"
         style="fill:#ffffff;fill-opacity:1" />
      <path
         d="M180.398,99.048 C178.488,96.476 175.87,96.046 176.32,90.889 C176.878,84.501 218.574,62.812 227.309,57.237 C232.023,54.227 237.359,61.743 237.505,62.336 C239.824,71.684 218.127,80.082 212.012,83.752 C200.263,90.799 193.564,96.466 180.398,99.048"
         id="Fill-6"
         style="fill:#ffffff;fill-opacity:1" />
      <path
         d="M328.264,86.809 C329.436,89.667 329.436,92.111 328.264,94.968 C306.073,99.158 281.1,92.734 258.922,88.851 C256.706,86.878 255.947,75.77 264.021,76.611 C278.316,78.107 318.181,81.354 328.264,86.809"
         id="Fill-7"
         style="fill:#ffffff;fill-opacity:1" />
      <path
         d="M335.404,264.248 C334.373,256.461 329.098,243.893 323.165,239.77 C296.676,221.387 277.198,278.509 320.107,267.306 C332.149,285.629 317.264,308.962 308.889,322.376 C323.037,310.62 338.822,290.071 335.404,264.248 M157.964,227.536 C141.893,215.441 121.247,233.596 131.452,254.051 C139.938,254.16 140.868,247.538 149.806,249.968 C172.596,256.172 144.689,305.367 137.569,311.152 C166.745,308.733 180.087,244.192 157.964,227.536 M325.206,197.964 C319.007,203.491 309.541,209.625 297.671,209.178 C280.084,208.53 271.786,192.895 259.939,185.725 C207.334,153.893 124.984,163.766 82.503,201.021 C66.076,215.432 51.129,235.936 55.988,267.306 C58.05,207.151 138.776,178.201 177.341,215.302 C193.598,230.936 200.014,257.376 220.171,265.264 C253.993,278.514 263.458,240.766 282.374,229.572 C295.585,221.765 321.029,218.688 335.404,226.515 C340.714,229.413 343.916,237.25 351.717,240.796 C361.982,245.451 373.251,242.956 384.351,239.77 C374.295,225.903 350.104,217.553 349.68,195.922 C349.551,189.33 352.836,186.417 352.739,178.584 C336.176,171.464 333.808,190.296 325.206,197.964 M358.855,185.725 C354.271,211.279 380.721,234.801 404.745,231.614 C420.246,229.562 427.11,215.889 436.359,205.104 C427.242,209.755 419.004,218.598 406.787,220.4 C386.964,223.318 367.074,211.029 368.035,190.824 C368.538,180.238 377.262,172.066 383.332,167.371 C387.696,163.995 395.192,161.879 393.529,159.215 C378.056,164.209 361.614,170.369 358.855,185.725 M482.243,228.561 C484.419,239.601 483.326,246.482 480.431,257.412 C477.503,268.446 473.514,279.296 466.951,288.721 C388.941,400.781 95.631,402.796 16.218,288.721 C0.203,265.712 -4.206,236.145 5.922,210.183 C10.394,198.721 17.19,188.294 25.326,179.102 C42.027,160.241 63.947,146.418 86.581,135.758 C168.219,97.308 285.467,92.883 375.174,126.581 C381.146,126.581 390.544,132.7 395.974,135.178 C402.893,138.337 409.692,141.768 416.29,145.557 C428.875,152.782 440.798,161.321 451.06,171.623 C461.076,181.682 469.383,193.393 475.123,206.394 C478.13,213.21 480.542,220.391 482.063,227.69 C482.126,227.979 482.186,228.273 482.243,228.561"
         id="Fill-8"
         style="fill:#ffffff;fill-opacity:1" />
      <path
         d="M386.393,390.697 C382.563,381.929 397.583,372.27 408.826,363.167 C421.236,353.108 425.297,347.293 435.338,342.771 C439.874,340.73 444.36,347.86 444.518,348.886 C445.707,356.674 422.397,371.766 418.003,375.4 C407.417,384.16 398.103,396.04 386.393,390.697"
         id="Fill-9"
         style="fill:#ffffff;fill-opacity:1" />
      <path
         d="M119.213,384.578 C107.898,386.778 99.139,378.345 89.641,375.4 C79.429,390.732 67.386,407.682 55.989,424.352 C52.708,429.152 50.13,438.732 40.692,433.524 C40.553,431.633 40.023,430.118 38.653,429.45 C48.229,407.074 63.652,390.543 75.366,370.302 C67.964,365.512 43.839,361.345 57.009,348.886 C66.662,348.747 75.866,354.911 90.662,361.125 C103.668,366.587 127.307,369.231 119.213,384.578"
         id="Fill-10"
         style="fill:#ffffff;fill-opacity:1" />
      <path
         d="M454.715,372.339 C462.64,382.745 439.005,395.98 430.238,402.931 C419.123,411.76 408.448,425.184 397.607,417.212 C399.082,403.748 414.089,397.697 423.102,390.697 C432.142,383.676 441.357,370.681 454.715,372.339"
         id="Fill-11"
         style="fill:#ffffff;fill-opacity:1" />
      <path
         d="M175.3,404.973 C175.384,397.479 162.237,394.427 151.848,393.759 C148.487,400.935 145.578,408.567 142.668,416.191 C155.741,415.266 175.193,414.772 175.3,404.973 M178.36,477.377 L174.282,477.377 C159.989,462.772 151.519,442.353 137.57,427.411 C132.304,434.052 129,466.696 117.174,465.143 C106.648,463.753 113.898,450.379 116.156,444.748 C125.298,421.927 134.119,393.689 144.707,378.463 C168.095,379.259 191.901,387.133 189.578,408.03 C187.905,423.098 171.677,425.344 157.965,430.467 C161.823,441.81 192.974,466.741 178.36,477.377"
         id="Fill-12"
         style="fill:#ffffff;fill-opacity:1" />
      <path
         d="M316.026,396.816 C319.978,417.341 323.506,438.284 327.245,459.018 C338.414,455.603 359.003,454.601 357.839,441.685 C356.732,429.432 333.982,433.554 329.284,426.389 C322.964,416.749 335.827,415.624 339.482,413.129 C344.85,409.475 349.717,403.52 345.602,395.797 C337.045,391.688 324.798,395.094 316.026,396.816 M353.757,419.254 C365.61,425.309 376.301,435.725 371.095,450.862 C365.053,468.424 334.789,473.185 317.048,473.299 C309.803,449.926 304.891,416.361 301.751,389.677 C311.352,380.608 336.642,376.372 349.68,381.521 C362.457,386.565 365.613,411.655 353.757,419.254"
         id="Fill-13"
         style="fill:#ffffff;fill-opacity:1" />
      <path
         d="M276.257,395.797 C273.557,402.662 260.614,401.607 255.861,400.896 C249.081,419.269 245.334,440.674 239.545,460.044 C246.527,462.882 261.698,461.936 255.861,474.314 C242.418,479.025 224.222,472.382 209.973,471.257 C208.574,466.98 207.309,463.838 209.973,460.044 C214.178,456.877 217.85,459.392 224.249,459.018 C231.083,442.059 234.675,421.857 239.545,402.931 C234.914,400.089 223.512,404.018 220.171,399.874 C220.335,398.689 219.944,398.062 219.15,397.832 C217.293,383.367 239.206,387.635 255.861,387.635 C267.247,387.635 277.685,387.365 276.257,395.797"
         id="Fill-14"
         style="fill:#ffffff;fill-opacity:1" />
      <path
         d="M462.873,397.832 C488.452,401.597 454.573,423.903 447.577,429.45 C443.348,432.797 414.639,460.282 411.886,443.722 C410.669,436.412 429.684,424.741 435.338,420.27 C446.345,411.57 454.329,404.56 462.873,397.832"
         id="Fill-15"
         style="fill:#ffffff;fill-opacity:1" />
    </g>
  </g>
</svg>
